<?xml version="1.0" ?><svg id="Layer_2" style="enable-background:new 0 0 32 32;" version="1.1" viewBox="0 0 32 32" xml:space="preserve" xmlns="http://www.w3.org/2000/svg" xmlns:xlink="http://www.w3.org/1999/xlink"><g><path d="M2,13.27698h0.83984l2.81641,14.57617c0.40723,2.11328,2.26563,3.64697,4.41797,3.64697h11.85156   c2.15234,0,4.01074-1.53369,4.41797-3.64648l2.81641-14.57666H30c0.65527,0,1.23438-0.4248,1.43066-1.0498   S31.39551,10.922,30.8584,10.547l-14-9.77686c-0.51563-0.36035-1.20117-0.36035-1.7168,0l-14,9.77686   c-0.53711,0.375-0.76855,1.05518-0.57227,1.68018S1.34473,13.27698,2,13.27698z M16,3.82971l10.54102,7.36133   c-0.04102,0.09521-0.07129,0.19629-0.0918,0.30127l-3.05078,15.79248c-0.13574,0.7041-0.75488,1.21533-1.47266,1.21533H10.07422   c-0.71777,0-1.33691-0.51123-1.47266-1.21582L5.55078,11.49231C5.53027,11.38733,5.5,11.28625,5.45898,11.19104L16,3.82971z"/><path d="M16,21.63831c2.75684,0,5-2.24316,5-5s-2.24316-5-5-5s-5,2.24316-5,5S13.24316,21.63831,16,21.63831z M16,14.63831   c1.10254,0,2,0.89697,2,2s-0.89746,2-2,2s-2-0.89697-2-2S14.89746,14.63831,16,14.63831z"/><path d="M18.28613,22.36194h-4.57227c-0.82813,0-1.5,0.67139-1.5,1.5s0.67188,1.5,1.5,1.5h4.57227c0.82813,0,1.5-0.67139,1.5-1.5   S19.11426,22.36194,18.28613,22.36194z"/></g></svg>