<?xml version="1.0" ?><svg id="Layer_2" style="enable-background:new 0 0 32 32;" version="1.1" viewBox="0 0 32 32" xml:space="preserve" xmlns="http://www.w3.org/2000/svg" xmlns:xlink="http://www.w3.org/1999/xlink"><g><path d="M16,13.73193c3.64795,0,6.61621-2.96777,6.61621-6.61572S19.64795,0.5,16,0.5S9.38379,3.46826,9.38379,7.11621   S12.35205,13.73193,16,13.73193z M16,3.5c1.99414,0,3.61621,1.62207,3.61621,3.61621c0,1.99365-1.62207,3.61572-3.61621,3.61572   s-3.61621-1.62207-3.61621-3.61572C12.38379,5.12207,14.00586,3.5,16,3.5z"/><path d="M16,14.5C9.65869,14.5,4.5,19.65869,4.5,26v2c0,1.92969,1.57031,3.5,3.5,3.5h16c1.92969,0,3.5-1.57031,3.5-3.5v-2   C27.5,19.65869,22.34131,14.5,16,14.5z M24.5,28c0,0.27588-0.22412,0.5-0.5,0.5H8c-0.27588,0-0.5-0.22412-0.5-0.5v-2   c0-4.68701,3.81299-8.5,8.5-8.5s8.5,3.81299,8.5,8.5V28z"/></g></svg>