<?xml version="1.0" ?><svg id="Layer_2" style="enable-background:new 0 0 32 32;" version="1.1" viewBox="0 0 32 32" xml:space="preserve" xmlns="http://www.w3.org/2000/svg" xmlns:xlink="http://www.w3.org/1999/xlink"><g><path d="M26,3.35693H6c-3.03271,0-5.5,2.46729-5.5,5.5v14.28613c0,3.03271,2.46729,5.5,5.5,5.5h20c3.03223,0,5.5-2.46729,5.5-5.5   V8.85693C31.5,5.82422,29.03223,3.35693,26,3.35693z M26,25.64307H6c-1.37842,0-2.5-1.12158-2.5-2.5V8.85693   c0-1.37842,1.12158-2.5,2.5-2.5h20c1.37891,0,2.5,1.12158,2.5,2.5V9.0835h-7.08398C17.60254,9.0835,14.5,12.18604,14.5,16   s3.10254,6.9165,6.91602,6.9165H28.5v0.22656C28.5,24.52148,27.37891,25.64307,26,25.64307z M28.5,19.9165h-7.08398   C19.25684,19.9165,17.5,18.15967,17.5,16s1.75684-3.9165,3.91602-3.9165H28.5V19.9165z"/><path d="M19.08398,16c0,1.58057,1.28613,2.86621,2.86621,2.86621S24.81641,17.58057,24.81641,16s-1.28613-2.86621-2.86621-2.86621   S19.08398,14.41943,19.08398,16z"/></g></svg>